<?xml version="1.0" encoding="utf-8"?>
<!-- Generator: Adobe Illustrator 22.1.0, SVG Export Plug-In . SVG Version: 6.00 Build 0)  -->
<svg version="1.1" id="图层_1" xmlns="http://www.w3.org/2000/svg"  x="0px" y="0px"
	 viewBox="0 0 451.3 400.8" style="enable-background:new 0 0 451.3 400.8;" xml:space="preserve">
<style type="text/css">
	.st0{fill:#E32174;}
	.st1{fill:#143D96;}
	.st2{fill:#6CBA3D;}
	.st3{fill:#F1EB31;}
	.st4{fill:#E9431A;}
	.st5{fill:#633F95;}
	.st6{fill:#A24F9A;}
	.st7{fill:#F5B71A;}
	.st8{fill:#241916;}
</style>
<g>
	<path class="st0" d="M387,197.1c0,27.4-22.2,49.5-49.5,49.5c-27.4,0-49.5-22.2-49.5-49.5c0-27.4,22.2-49.5,49.5-49.5
		C364.9,147.5,387,169.7,387,197.1"/>
	<path class="st1" d="M375.8,122.4c0,11.6-9.4,20.9-20.9,20.9c-11.6,0-20.9-9.4-20.9-20.9c0-11.6,9.4-20.9,20.9-20.9
		C366.4,101.5,375.8,110.9,375.8,122.4"/>
	<path class="st2" d="M338.6,71c0,27.4-22.2,49.5-49.5,49.5c-27.4,0-49.5-22.2-49.5-49.5c0-27.4,22.2-49.5,49.5-49.5
		C316.4,21.5,338.6,43.7,338.6,71"/>
	<path class="st3" d="M227.6,48.5c0,27.4-22.2,49.5-49.5,49.5c-27.4,0-49.5-22.2-49.5-49.5c0-27.4,22.2-49.5,49.5-49.5
		C205.4-1,227.6,21.2,227.6,48.5"/>
	<path class="st4" d="M144,175.2c0,19.5-15.8,35.4-35.4,35.4c-19.5,0-35.4-15.8-35.4-35.4s15.8-35.4,35.4-35.4
		C128.1,139.8,144,155.6,144,175.2"/>
	<path class="st5" d="M149,115c0,10-8.1,18-18,18s-18-8.1-18-18c0-10,8.1-18,18-18S149,105.1,149,115"/>
	<path class="st6" d="M202.9,226.2c0,17.8-14.4,32.2-32.2,32.2c-17.8,0-32.2-14.4-32.2-32.2c0-17.8,14.4-32.2,32.2-32.2
		C188.5,194,202.9,208.4,202.9,226.2"/>
	<path class="st7" d="M453.3,322H0c0,0,162-8.2,217-10.2c0,0,5.6-57.9,4.8-86.6c0,0-0.3-20.2-26.7-35.7c0,0-38.2-19.2-36.2-29.3
		c0,0,1.1-6.4,19,3.7c0,0,13.3,8.7,16.7,8.2c0,0,0-5.5-17.5-17.7c0,0-25.6-20.8-17.1-30c0,0,3.2-4.5,15.8,7.5
		c0,0,22.6,23.7,27.6,24.5c0,0,3.2,0.2-2.5-8.8c-5-7.8-15.1-25.8-19.2-33.5c0,0-4.8-8.2,2-11.3c0,0,5.7-3.3,14.3,11.8
		c0,0,11.6,22.7,18.8,28.2c0,0,5.6,6.8,11.5,1.4c0,0,1.9-2-0.8-14.5c0,0-6.1-28.2,0-31.6c0,0,6.7-5.4,11,7.8c0,0,4.6,16.6,7.5,30.8
		c0,0,6,23.3,18.8,20.5c0,0,10.9-1.1,21.2-13.5c0,0,15.5-20.1,21.7-15.2c0,0,9,4.3-5.5,19.2c0,0-25.2,27.2-32,71.6
		c0,0-4.3,54.1,1.9,92.3C272,311.5,396,312,453.3,322"/>
</g>
<g>
	<path class="st7" d="M159.3,366.8H139v6.7h19.3c3,0,5.1,0.5,6.1,1.6c1.1,1,1.6,3,1.6,5.8v4.2c0,2.8-0.5,4.7-1.6,5.8
		c-1.1,1-3.1,1.6-6.1,1.6h-19.1c-3,0-5.1-0.5-6.1-1.6c-1.1-1-1.6-3-1.6-5.8v-0.8l6.4-1.3v3.7h21.9v-7.1h-19.3c-3,0-5-0.5-6.1-1.6
		c-1.1-1-1.6-3-1.6-5.8v-3.4c0-2.8,0.5-4.7,1.6-5.8c1.1-1,3.1-1.6,6.1-1.6H158c2.9,0,4.9,0.5,6,1.5c1.1,1,1.7,2.8,1.7,5.3v0.6
		l-6.4,1.5V366.8z"/>
</g>
<g>
	<path class="st2" d="M253.3,366.4v25.4h-7.2v-25.4h-14.2v-5.5h35.7v5.5H253.3z"/>
</g>
<g>
	<path class="st8" d="M197.3,391.9c-1.4,0-2.4,0-3.2,0c-0.9,0-2,0-3.1,0l0-3.9c-0.4,0.7-0.8,1.2-1.1,1.6c-0.3,0.4-0.8,0.8-1.3,1.2
		c-0.5,0.4-1.1,0.7-1.7,0.9c-0.6,0.2-1.3,0.4-2.1,0.6c-0.8,0.1-1.7,0.2-2.6,0.2c-1.8,0-3.3-0.3-4.6-0.8c-1.3-0.5-2.3-1.3-3.1-2.3
		c-0.8-1-1.1-2.5-1.1-4.4v-0.5l0.4-6l0.4-8c0-0.6,0-1.4,0-2.4c1.5,0,2.6,0,3.5,0c0.9,0,2,0,3.2,0l-0.8,10.7c0,0.8-0.1,1.5-0.1,2.1
		c0,0.6,0,1,0,1.2c0,1.1,0.2,2.1,0.5,2.8c0.3,0.7,0.9,1.3,1.8,1.7c0.8,0.4,1.7,0.6,2.7,0.6c0.9,0,1.8-0.2,2.6-0.5
		c0.7-0.3,1.4-0.8,1.9-1.3c0.5-0.6,1-1.3,1.3-2.3c0.3-0.7,0.5-1.6,0.6-2.9c0.1-0.9,0.2-2.3,0.3-4.4c0.1-2.5,0.2-5.1,0.3-7.7
		c1.5,0,2.7,0,3.5,0c0.9,0,2,0,3.1,0c-0.2,2.2-0.4,5-0.6,8.4c-0.2,3.4-0.3,6.1-0.4,8.3C197.5,386.9,197.4,389.3,197.3,391.9z"/>
	<path class="st8" d="M203,391.9c0.4-3.5,0.7-7.5,0.9-12c0.2-4.4,0.4-8.4,0.4-11.9c1.4,0,2.6,0,3.4,0c1,0,2.1,0,3.2,0l-0.3,4
		c0.5-0.7,0.9-1.2,1.3-1.6c0.4-0.4,0.8-0.8,1.4-1.2c0.6-0.4,1.2-0.7,1.8-0.9c0.6-0.2,1.4-0.4,2.2-0.6c0.8-0.1,1.6-0.2,2.5-0.2
		c1.4,0,2.7,0.2,4,0.5c1.3,0.4,2.3,0.9,3.1,1.7c0.8,0.8,1.3,1.6,1.5,2.5c0.2,0.9,0.4,1.9,0.4,2.9c0,0.4,0,1.1-0.1,2l-0.5,10.2
		c-0.1,1.4-0.1,2.9-0.1,4.5c-1.2,0-2.3,0-3.2,0c-1.2,0-2.4,0-3.6,0c0.1-1.4,0.3-3.7,0.5-7.1c0.2-3.4,0.3-5.6,0.3-6.7
		c0-1.2-0.2-2.2-0.6-3c-0.4-0.8-1-1.3-1.8-1.7c-0.8-0.4-1.7-0.6-2.7-0.6c-0.9,0-1.8,0.2-2.6,0.5c-0.8,0.4-1.5,0.9-2.1,1.6
		c-0.6,0.7-1.1,1.6-1.5,2.6c-0.4,1.1-0.6,2.9-0.8,5.4c-0.2,2.2-0.3,5.2-0.4,9c-1.2,0-2.3,0-3.3,0C205.6,391.8,204.4,391.8,203,391.9
		z"/>
	<path class="st8" d="M269.9,391.9l0.7-11.1l0.2-6.5c0-1.3,0-2.7,0-4c0-0.2,0-1,0-2.2c1.5,0,2.5,0,3.2,0c0.8,0,1.9,0,3.2,0l-0.1,3.3
		c0.6-0.8,1.1-1.5,1.5-1.9c0.4-0.4,0.9-0.8,1.4-1.1c0.5-0.3,1.1-0.5,1.7-0.7c0.6-0.2,1.3-0.2,2-0.2c0.6,0,1.3,0.1,1.9,0.2
		c0,1.5,0.1,3.3,0.2,5.5c-0.9-0.2-1.8-0.4-2.5-0.4c-0.9,0-1.7,0.1-2.4,0.4c-0.7,0.3-1.3,0.7-1.9,1.2c-0.6,0.6-1,1.2-1.4,2.1
		c-0.3,0.7-0.5,1.5-0.7,2.6c-0.1,0.8-0.2,2.2-0.3,4.2c-0.1,2-0.1,3.9-0.1,5.8c0,0.7,0,1.7,0.1,2.8c-1.2,0-2.3,0-3.3,0
		C272.4,391.8,271.2,391.8,269.9,391.9z"/>
	<path class="st8" d="M309.8,386.5c-0.2,0.9-0.5,2.6-0.9,5c-1.7,0.4-3.1,0.6-4.3,0.7c-1.2,0.1-2.3,0.2-3.5,0.2c-2,0-3.9-0.2-5.5-0.6
		c-1.6-0.4-3-1.2-4.3-2.2c-1.2-1.1-2.1-2.4-2.7-4c-0.6-1.6-0.9-3.2-0.9-5c0-1.9,0.3-3.8,1-5.6c0.7-1.8,1.6-3.3,2.8-4.4
		c1.2-1.1,2.6-2,4.1-2.4c1.5-0.5,3.2-0.7,4.9-0.7c1.6,0,3.1,0.2,4.5,0.6c1.4,0.4,2.6,1,3.6,2c1,0.9,1.7,2,2.2,3.3
		c0.5,1.3,0.8,2.7,0.8,4.2c0,0.7-0.1,1.5-0.2,2.3l-17.2,0c0,0.6,0,1,0,1.4c0,1,0.2,2,0.5,2.9s0.9,1.6,1.6,2.2
		c0.7,0.6,1.5,1.1,2.5,1.3c1,0.3,1.9,0.4,2.8,0.4c1.1,0,2.2-0.1,3.5-0.4C306.6,387.5,308.1,387.1,309.8,386.5z M294.7,377.1l11,0
		c0-0.7,0-1.3-0.1-1.7c0-0.4-0.2-0.8-0.3-1.2c-0.2-0.5-0.4-0.9-0.7-1.2c-0.3-0.3-0.6-0.6-1-0.9s-0.8-0.4-1.3-0.5
		c-0.5-0.1-1-0.2-1.6-0.2c-0.7,0-1.3,0.1-1.9,0.3c-0.6,0.2-1.2,0.5-1.7,0.9c-0.5,0.4-0.9,0.8-1.3,1.3c-0.3,0.5-0.6,0.9-0.7,1.4
		C295,375.7,294.8,376.3,294.7,377.1z"/>
	<path class="st8" d="M336.7,386.5c-0.2,0.9-0.5,2.6-0.9,5c-1.7,0.4-3.1,0.6-4.3,0.7c-1.2,0.1-2.3,0.2-3.5,0.2c-2,0-3.9-0.2-5.5-0.6
		c-1.6-0.4-3-1.2-4.3-2.2c-1.2-1.1-2.1-2.4-2.7-4c-0.6-1.6-0.9-3.2-0.9-5c0-1.9,0.3-3.8,1-5.6c0.7-1.8,1.6-3.3,2.8-4.4
		c1.2-1.1,2.6-2,4.1-2.4c1.5-0.5,3.2-0.7,4.9-0.7c1.6,0,3.1,0.2,4.5,0.6c1.4,0.4,2.6,1,3.6,2c1,0.9,1.7,2,2.2,3.3
		c0.5,1.3,0.8,2.7,0.8,4.2c0,0.7-0.1,1.5-0.2,2.3l-17.2,0c0,0.6,0,1,0,1.4c0,1,0.2,2,0.5,2.9c0.4,0.9,0.9,1.6,1.6,2.2
		c0.7,0.6,1.5,1.1,2.5,1.3s1.9,0.4,2.8,0.4c1.1,0,2.2-0.1,3.5-0.4C333.5,387.5,335,387.1,336.7,386.5z M321.6,377.1l11,0
		c0-0.7,0-1.3-0.1-1.7c0-0.4-0.2-0.8-0.3-1.2c-0.2-0.5-0.4-0.9-0.7-1.2c-0.3-0.3-0.6-0.6-1-0.9s-0.8-0.4-1.3-0.5
		c-0.5-0.1-1-0.2-1.6-0.2c-0.7,0-1.3,0.1-1.9,0.3c-0.6,0.2-1.2,0.5-1.7,0.9c-0.5,0.4-0.9,0.8-1.3,1.3c-0.3,0.5-0.6,0.9-0.7,1.4
		C321.9,375.7,321.7,376.3,321.6,377.1z"/>
</g>
</svg>
